# xmcd
#
# Track frame offsets:
#	150
#	12137
#	23935
#	37202
#	52325
#	67660
#	81430
#	96432
#	108685
#	117877
#	129132
#	141975
#	155190
#	173202
#	184737
#
# Disc length: 2635 seconds
#
# Revision: 1
# Processed by: cddbd v1.5.1PL0 Copyright (c) Steve Scherf et al.
# Submitted via: CDex 1.50Beta5
#
DISCID=d70a490f
DTITLE=STAR CLUB,THE - RADICAL REAL ROCK
DYEAR=1989
DGENRE=Pop
TTITLE0=GO AHEAD
TTITLE1=LAST RIGHT,THE
TTITLE2=POWER TO THE PUNKS
TTITLE3=ENFANTS TERRIBLES
TTITLE4=冗談本気
TTITLE5=BIBLE,THE
TTITLE6=SAME NIGHT
TTITLE7=LOOP HOLE
TTITLE8=MAKE MERRY
TTITLE9=D.K.G
TTITLE10=真夏悪戯
TTITLE11=URBAN GUE PRILLA
TTITLE12=RADICAL REAL ROCK
TTITLE13=BODIES
TTITLE14=HELLO NEW PUNKS
EXTD=
EXTT0=
EXTT1=
EXTT2=
EXTT3=
EXTT4=
EXTT5=
EXTT6=
EXTT7=
EXTT8=
EXTT9=
EXTT10=
EXTT11=
EXTT12=
EXTT13=
EXTT14=
PLAYORDER=
